<svg xmlns="http://www.w3.org/2000/svg" width="129.003" height="25.997" viewBox="0 0 129.003 25.997">
    <g fill="#15151d">
        <path d="M92.13 36.495H-26c-.827 0-1.5-.673-1.5-1.5V19.25c.23-.19.602-.527 1.252-1.122.749-.686 1.795-1.657 2.946-2.736 1.044-.978 2.105-1.98 2.913-2.748.408-.39.731-.7.959-.92l.229-.225H98.995c.827 0 1.5.673 1.5 1.5v15.075c-.724 1.015-7.194 7.303-8.364 8.42z" transform="translate(28 -11)"/>
        <path fill="#d0a85c" d="M-18.996 12l-.086.083c-.229.223-.553.534-.963.924-.808.77-1.871 1.773-2.915 2.752-.816.764-1.99 1.859-2.95 2.739-.491.45-.835.764-1.09.985v15.512c0 .551.449 1 1 1H91.928c.637-.615 2.24-2.167 3.833-3.742 2.995-2.958 3.938-3.995 4.234-4.354V13c0-.55-.449-.999-1-.999H-18.996m-.422-1H98.995c1.105 0 2 .895 2 2v15.163c.32.184-8.662 8.834-8.668 8.834l.003-.002H-26c-1.105 0-2-.896-2-2V18.999h.002c.17 0 8.663-7.999 8.58-7.999z" transform="translate(28 -11)"/>
    </g>
</svg>
