<svg xmlns="http://www.w3.org/2000/svg" width="82" height="36" viewBox="0 0 82 36">
    <g transform="translate(-18 -515)">
        <rect width="82" height="36" fill="#dcb067" rx="18" transform="translate(18 515)"/>
        <text fill="#fff" font-family="NotoSansCJKkr-Regular, Noto Sans CJK KR" font-size="12px" letter-spacing="-0.06em" transform="translate(59 538)">
            <tspan x="0" y="0">추천</tspan>
        </text>
        <path fill="#fff" d="M71.971 0a4.865 4.865 0 0 0-3.462 1.444A4.864 4.864 0 0 0 65.047 0a4.074 4.074 0 0 0-4.038 4.233c0 2.595 2.124 4.337 5.34 6.973 1.64 1.345 1.784 1.48 2.16 1.793.5-.416.487-.421 2.16-1.793 3.216-2.637 5.34-4.379 5.34-6.973A4.074 4.074 0 0 0 71.971 0z" transform="translate(-25.009 527)"/>
    </g>
</svg>
