<svg xmlns="http://www.w3.org/2000/svg" width="15" height="15" viewBox="0 0 15 15">
    <path fill="#cfcfcf" d="M-1983.186 535.787l-.938-.234a6.587 6.587 0 0 0-.491-1.183l.5-.83a.246.246 0 0 0-.037-.3l-2.085-2.085a.246.246 0 0 0-.3-.037l-.83.5a6.591 6.591 0 0 0-1.182-.491l-.234-.938a.246.246 0 0 0-.238-.186h-2.95a.246.246 0 0 0-.238.186l-.234.938a6.587 6.587 0 0 0-1.182.491l-.83-.5a.246.246 0 0 0-.3.037l-2.085 2.085a.246.246 0 0 0-.037.3l.5.83a6.587 6.587 0 0 0-.491 1.183l-.938.234a.246.246 0 0 0-.186.238v2.949a.246.246 0 0 0 .186.238l.938.234a6.588 6.588 0 0 0 .491 1.183l-.5.83a.246.246 0 0 0 .037.3l2.085 2.085a.246.246 0 0 0 .3.037l.83-.5a6.6 6.6 0 0 0 1.182.491l.234.938a.246.246 0 0 0 .238.186h2.95a.246.246 0 0 0 .238-.186l.234-.938a6.6 6.6 0 0 0 1.182-.491l.83.5a.246.246 0 0 0 .3-.037l2.085-2.085a.246.246 0 0 0 .037-.3l-.5-.83a6.588 6.588 0 0 0 .491-1.183l.938-.234a.246.246 0 0 0 .186-.238v-2.949a.246.246 0 0 0-.186-.238zM-1990.5 540a2.5 2.5 0 0 1-2.5-2.5 2.5 2.5 0 0 1 2.5-2.5 2.5 2.5 0 0 1 2.5 2.5 2.5 2.5 0 0 1-2.5 2.5z" transform="translate(1998 -530)"/>
</svg>
