<svg xmlns="http://www.w3.org/2000/svg" width="345.004" height="126" viewBox="0 0 345.004 126">
    <g fill="none" opacity="0.5">
        <path d="M21.25 5.25h321.667a2 2 0 0 1 2 2L345 109.54c.333-.334-21.229 21.71-22.333 21.71H2a2 2 0 0 1-2-2V26.542C0 25.874 21.25 5.25 21.25 5.25z" transform="translate(0 -5.25)"/>
        <path fill="#fff" d="M21.656 6.25C14.16 13.527 2.466 25.027 1 26.836v102.41c0 .554.449 1.004 1 1.004h320.442c.573-.392 2.804-2.29 11.427-10.89 4.579-4.567 8.99-9.06 10.13-10.226l-.082-101.88c0-.554-.449-1.004-1-1.004H21.656m-.406-1h321.667c1.104 0 2 .897 2 2.004L345 109.54l.004-.004c.007 0-21.241 21.714-22.337 21.714H2c-1.105 0-2-.897-2-2.004V26.542C0 25.874 21.25 5.25 21.25 5.25z" transform="translate(0 -5.25)"/>
    </g>
</svg>
