<svg xmlns="http://www.w3.org/2000/svg" width="775.354" height="13.387" viewBox="0 0 775.354 13.387">
    <path fill="#dcb067" d="M792.286 140.75H416.608l-3.4 3.629h-4.458l-3.666 3.849-3.666-3.849H397.2l-3.4-3.629H16.932v1h343.046l3.056 3.629h33.728l8.062 8.6.171.158h.434l8.21-8.758h33.609l3.057-3.629h341.981zM363.5 144.379l-2.214-2.629h32.074l2.466 2.629zm41.7 8.539l-7.068-7.539h2.854l3.724 3.909.166.155h.428l3.871-4.064h3.092zm41.582-8.539h-32.205l2.465-2.629H449z" transform="translate(-16.932 -140.75)"/>
</svg>
