<svg xmlns="http://www.w3.org/2000/svg" width="15" height="13" viewBox="0 0 15 13">
    <g>
        <path fill="#fff" d="M66.349 11.207c1.64 1.345 1.784 1.48 2.16 1.793.5-.416.487-.421 2.16-1.793 3.216-2.637 5.34-4.379 5.34-6.973A4.074 4.074 0 0 0 71.971 0a4.865 4.865 0 0 0-3.462 1.444A4.864 4.864 0 0 0 65.047 0a4.074 4.074 0 0 0-4.038 4.233c0 2.595 2.124 4.337 5.34 6.973zm-1.3-10.041a3.735 3.735 0 0 1 2.984 1.493l.478.718.479-.72a3.752 3.752 0 0 1 2.983-1.491 2.915 2.915 0 0 1 2.885 3.068c0 2.039-1.955 3.642-4.913 6.068-.461.378-.935.767-1.433 1.182-.5-.415-.971-.8-1.433-1.182-2.959-2.426-4.913-4.029-4.913-6.068a2.915 2.915 0 0 1 2.885-3.068z" transform="translate(-61.009)"/>
    </g>
</svg>
