<svg xmlns="http://www.w3.org/2000/svg" width="14" height="15.5" viewBox="0 0 14 15.5">
    <defs>
        <style>
            .cls-2,.cls-5{fill:none}.cls-2{stroke:#707070}.cls-4{stroke:none}
        </style>
    </defs>
    <g id="icon" transform="translate(-17.508 -522.976)">
        <path id="패스_394" fill="none" stroke="#707070" stroke-linecap="round" stroke-linejoin="round" d="M825.192 2421.49h13" transform="translate(-807.184 -1883.514)"/>
        <g id="사각형_92" class="cls-2">
            <path d="M6.5 0A6.5 6.5 0 0 1 13 6.5V13H0V6.5A6.5 6.5 0 0 1 6.5 0z" class="cls-4" transform="translate(18.008 522.976)"/>
            <path d="M6.5.5a6 6 0 0 1 6 6v5.939a.061.061 0 0 1-.061.061H.561a.061.061 0 0 1-.061-.061V6.5a6 6 0 0 1 6-6z" class="cls-5" transform="translate(18.008 522.976)"/>
        </g>
        <g id="사각형_93" class="cls-2">
            <path d="M6.5 0A6.5 6.5 0 0 1 13 6.5V13H0V6.5A6.5 6.5 0 0 1 6.5 0z" class="cls-4" transform="translate(18.008 522.976)"/>
            <path d="M6.5.5a6 6 0 0 1 6 6v5.939a.061.061 0 0 1-.061.061H.561a.061.061 0 0 1-.061-.061V6.5a6 6 0 0 1 6-6z" class="cls-5" transform="translate(18.008 522.976)"/>
        </g>
        <path id="패스_406" fill="none" stroke="#8e9093" d="M44.5 527.215a3.47 3.47 0 0 0-3.25 3.544" transform="translate(-19.992 -1.024)"/>
    </g>
</svg>
