<svg xmlns="http://www.w3.org/2000/svg" width="15" height="16" viewBox="0 0 15 16">
    <defs>
        <style>
            .cls-2{fill:#fff}
        </style>
    </defs>
    <g id="icon" transform="translate(-17.008 -521.977)">
        <g id="사각형_93" fill="none" stroke="#fff">
            <path stroke="none" d="M3 0h7a3 3 0 0 1 3 3v11H0V3a3 3 0 0 1 3-3z" transform="rotate(180 15.504 268.988)"/>
            <path d="M3 .5h7A2.5 2.5 0 0 1 12.5 3v10a.5.5 0 0 1-.5.5H1a.5.5 0 0 1-.5-.5V3A2.5 2.5 0 0 1 3 .5z" transform="rotate(180 15.504 268.988)"/>
        </g>
        <rect id="사각형_94" width="15" height="1" class="cls-2" rx=".5" transform="translate(17.008 523.977)"/>
        <rect id="사각형_95" width="7" height="1" class="cls-2" rx=".5" transform="translate(21.008 521.977)"/>
        <rect id="사각형_96" width="6" height="1" class="cls-2" rx=".5" transform="rotate(-90 277.993 255.984)"/>
        <rect id="사각형_97" width="6" height="1" class="cls-2" rx=".5" transform="rotate(-90 279.993 253.984)"/>
    </g>
</svg>
