<svg xmlns="http://www.w3.org/2000/svg" viewBox="0 0 16 16"><defs><style>.cls-1{fill:#ececec;}</style></defs><g id="레이어_2" data-name="레이어 2"><g id="레이어_1-2" data-name="레이어 1"><polygon class="cls-1" points="10.23 9.96 10.74 8.4 9.72 8.4 10.23 9.96"/><path class="cls-1" d="M8,0a8,8,0,1,0,8,8A8,8,0,0,0,8,0Zm4.29,8.4L11.12,12H9.38L8.21,8.4H7.46L6.25,12H4.52L3.34,8.4H1.7V7H2.88L2.22,5H3.9l.64,2H6.46l.67-2h1.5l.64,2H11.2l.65-2H13.4l-.65,2H14V8.4Z"/><polygon class="cls-1" points="5.48 9.92 5.99 8.4 4.99 8.4 5.48 9.92"/></g></g></svg>