<svg xmlns="http://www.w3.org/2000/svg" width="22" height="22" viewBox="0 0 22 22">
    <defs>
        <style>
            .cls-1{fill:#070a14}
        </style>
    </defs>
    <g id="icon_pick" transform="translate(-33.437 -15.677)">
        <path id="패스_403" d="M44.937 24.423a2.754 2.754 0 1 0 2.754 2.754 2.757 2.757 0 0 0-2.754-2.754zm0 4.509a1.754 1.754 0 1 1 1.754-1.755 1.756 1.756 0 0 1-1.754 1.755z" class="cls-1" transform="translate(-.5 -.5)"/>
        <path id="패스_404" d="M54.959 26.2h-1a9.541 9.541 0 0 0-9.043-9.042v-1a.478.478 0 1 0-.957 0v1a9.541 9.541 0 0 0-9.043 9.042h-1a.478.478 0 0 0 0 .957h1a9.543 9.543 0 0 0 9.043 9.043v1a.478.478 0 1 0 .957 0v-1a9.543 9.543 0 0 0 9.043-9.043h1a.478.478 0 0 0 0-.957zm-10.044 9.042v-1.056a.478.478 0 1 0-.957 0v1.056a8.587 8.587 0 0 1-8.086-8.086h1.056a.478.478 0 0 0 0-.957h-1.056a8.586 8.586 0 0 1 8.086-8.085v1.056a.478.478 0 0 0 .957 0v-1.057A8.586 8.586 0 0 1 53 26.2h-1.055a.478.478 0 0 0 0 .957H53a8.587 8.587 0 0 1-8.085 8.085z" class="cls-1"/>
    </g>
</svg>
