<svg xmlns="http://www.w3.org/2000/svg" width="21" height="20" viewBox="0 0 21 20">
    <path fill="#5b6071" d="M80.494 21.433a1.294 1.294 0 0 0-1.074-.241l-1.381.3v-3.451a1.215 1.215 0 0 0-1.228-1.2H64.1a1.216 1.216 0 0 0-1.229 1.2v3.452l-1.38-.3a1.3 1.3 0 0 0-1.074.242 1.184 1.184 0 0 0-.463.936v3.109a1.235 1.235 0 0 0 .98 1.191l2.434.526a7.575 7.575 0 0 0 6.883 4.775h-.3v3.9h-4.712a.488.488 0 1 0 0 .975h10.437a.488.488 0 1 0 0-.975h-4.718v-3.9h-.3a7.574 7.574 0 0 0 6.884-4.772l2.435-.526a1.236 1.236 0 0 0 .981-1.191V22.37a1.185 1.185 0 0 0-.464-.937zm-19.34 4.286a.248.248 0 0 1-.2-.239v-3.11a.22.22 0 0 1 .088-.175.281.281 0 0 1 .231-.052l1.6.349v2.094a7.252 7.252 0 0 0 .168 1.54zm15.885-1.132a6.584 6.584 0 0 1-13.164 0v-6.546a.229.229 0 0 1 .229-.222h12.707a.228.228 0 0 1 .228.222zm2.919.893a.249.249 0 0 1-.2.239l-1.89.408a7.188 7.188 0 0 0 .168-1.54v-2.094l1.6-.349a.283.283 0 0 1 .231.052.221.221 0 0 1 .089.175z" transform="translate(-59.958 -16.843)"/>
</svg>
