<svg xmlns="http://www.w3.org/2000/svg" width="21" height="21.07" viewBox="0 0 21 21.07">
    <g>
        <path fill="none" stroke="#fff" stroke-miterlimit="10" d="M26.9 35.538a2.927 2.927 0 0 0-5.843 0v3.974a1.211 1.211 0 0 1-1.245 1.172h-4.336a1.491 1.491 0 0 1-1.533-1.445V28.35a1.418 1.418 0 0 1 .537-1.1l8.467-6.219a1.6 1.6 0 0 1 1.992 0l8.461 6.218a1.414 1.414 0 0 1 .538 1.1V39.24a1.491 1.491 0 0 1-1.533 1.445h-4.26a1.21 1.21 0 0 1-1.245-1.173V35.5" transform="translate(.5 .57) translate(-13.943 -20.684)"/>
    </g>
</svg>
