<svg xmlns="http://www.w3.org/2000/svg" width="21" height="21" viewBox="0 0 21 21">
    <g>
        <path fill="#aeaeae" stroke="rgba(0,0,0,0)" stroke-miterlimit="10" d="M-1453.4-3092.936a10.011 10.011 0 0 1-10-10 10.011 10.011 0 0 1 10-10 10.011 10.011 0 0 1 10 10 10.011 10.011 0 0 1-10 10zm-.913-7.523v1.9h1.979v-1.9zm.869-5.3a1.036 1.036 0 0 1 .718.267.942.942 0 0 1 .3.734 1.184 1.184 0 0 1-.158.633 2.148 2.148 0 0 1-.561.552 3.961 3.961 0 0 0-.948.867 3.525 3.525 0 0 0-.179 1.446v.239h1.625a1.866 1.866 0 0 1 .13-.837 2.525 2.525 0 0 1 .74-.631 2.7 2.7 0 0 0 1.406-2.287 2.3 2.3 0 0 0-.844-1.822 3.13 3.13 0 0 0-2.092-.718 3.072 3.072 0 0 0-2.07.731 3.33 3.33 0 0 0-1.043 2.156l1.727.246c.087-1.045.509-1.575 1.249-1.575z" transform="translate(.5 .5) translate(1463.4 3112.935)"/>
    </g>
</svg>
