<svg xmlns="http://www.w3.org/2000/svg" width="21.001" height="21" viewBox="0 0 21.001 21">
    <g opacity="0.8">
        <path fill="none" stroke="#fff" stroke-miterlimit="10" d="M87.664 32.981a10.915 10.915 0 0 1-1.971-5.7 10 10 0 1 1 10.219 9.777 11.191 11.191 0 0 1-4.693-1.264l-3.679 1.222a.374.374 0 0 1-.479-.434z" transform="translate(.5 .5) translate(-85.691 -17.056)"/>
        <g>
            <path fill="#fff" d="M-2050.308 541.406h-1.244v-.861a1.164 1.164 0 0 1 .175-.682 4.057 4.057 0 0 1 .769-.708 1.916 1.916 0 0 0 .905-1.473 1.239 1.239 0 0 0-.354-.931 1.262 1.262 0 0 0-.921-.344q-1.314 0-1.55 1.817l-1.39-.249a3.112 3.112 0 0 1 1-2.133 3.067 3.067 0 0 1 2.1-.775 2.881 2.881 0 0 1 2.015.724 2.334 2.334 0 0 1 .8 1.8 2.434 2.434 0 0 1-.22 1.018 2.389 2.389 0 0 1-.5.746q-.281.264-1.186.927a.906.906 0 0 0-.325.361 2.579 2.579 0 0 0-.074.763zm.254.9v1.594h-1.5v-1.594z" transform="translate(.5 .5) translate(2060.959 -529.486)"/>
        </g>
    </g>
</svg>
