<svg xmlns="http://www.w3.org/2000/svg" width="21.001" height="21" viewBox="0 0 21.001 21">
    <g>
        <path fill="none" stroke="#fff" stroke-miterlimit="10" d="M87.664 32.981a10.915 10.915 0 0 1-1.971-5.7 10 10 0 1 1 10.219 9.777 11.191 11.191 0 0 1-4.693-1.264l-3.679 1.222a.374.374 0 0 1-.479-.434z" transform="translate(.5 .5) translate(-85.691 -17.056)"/>
        <path fill="#fff" d="M-2045.069 545.564a.967.967 0 0 1 1.012-.962.953.953 0 0 1 .987.962.963.963 0 0 1-.987.975.976.976 0 0 1-1.012-.975zm.087-7.86h1.85l-.313 5.848h-1.237z" transform="translate(.5 .5) translate(2054.069 -531.704)"/>
    </g>
</svg>
