<svg xmlns="http://www.w3.org/2000/svg" width="21" height="21" viewBox="0 0 21 21">
    <g>
        <path fill="none" stroke="#fff" stroke-miterlimit="10" d="M-1978.749 537.216l-1.25-.313a8.835 8.835 0 0 0-.654-1.576l.663-1.107a.327.327 0 0 0-.049-.4l-2.78-2.78a.328.328 0 0 0-.4-.05l-1.106.664a8.878 8.878 0 0 0-1.575-.654l-.313-1.25a.328.328 0 0 0-.318-.249h-3.932a.328.328 0 0 0-.318.249l-.313 1.25a8.878 8.878 0 0 0-1.577.654l-1.106-.664a.328.328 0 0 0-.4.05l-2.78 2.78a.327.327 0 0 0-.049.4l.663 1.107a8.835 8.835 0 0 0-.657 1.573l-1.25.313a.327.327 0 0 0-.249.318v3.932a.327.327 0 0 0 .249.318l1.25.313a8.835 8.835 0 0 0 .654 1.576l-.663 1.107a.327.327 0 0 0 .049.4l2.78 2.78a.327.327 0 0 0 .4.049l1.106-.663a8.878 8.878 0 0 0 1.577.654l.313 1.25a.328.328 0 0 0 .318.249h3.932a.328.328 0 0 0 .318-.249l.313-1.25a8.878 8.878 0 0 0 1.577-.654l1.106.663a.327.327 0 0 0 .4-.049l2.78-2.78a.327.327 0 0 0 .049-.4l-.663-1.107a8.835 8.835 0 0 0 .654-1.57l1.25-.313a.327.327 0 0 0 .249-.318v-3.932a.327.327 0 0 0-.248-.321zm-9.751 5.617a3.333 3.333 0 0 1-3.333-3.333 3.333 3.333 0 0 1 3.333-3.333 3.333 3.333 0 0 1 3.333 3.333 3.333 3.333 0 0 1-3.333 3.333z" opacity="0.8" transform="translate(.5 .5) translate(1998.5 -529.5)"/>
    </g>
</svg>
