<svg xmlns="http://www.w3.org/2000/svg" width="17.057" height="13.857" viewBox="0 0 17.057 13.857">
    <path fill="#fff" d="M487.887 284.161h-12.319a2.369 2.369 0 0 0-2.369 2.369v9.119a2.369 2.369 0 0 0 2.369 2.369h12.318a2.369 2.369 0 0 0 2.369-2.369v-9.119a2.369 2.369 0 0 0-2.368-2.369zm-2.559 2.489a1.554 1.554 0 1 1-1.554 1.554 1.554 1.554 0 0 1 1.554-1.554zm1.389 8.88h-9.979a.779.779 0 0 1-.658-1.2l3.333-5.262a.779.779 0 0 1 1.317 0l2.476 3.909a.159.159 0 0 0 .251.023l.779-.835a.779.779 0 0 1 1.14 0l1.912 2.051a.779.779 0 0 1-.571 1.314z" transform="translate(-473.199 -284.161)"/>
</svg>
