<svg xmlns="http://www.w3.org/2000/svg" width="20" height="20.408" viewBox="0 0 20 20.408">
    <defs>
        <clipPath id="clip-path">
            <path id="SVGID" d="M311.6 147.765a11.723 11.723 0 0 0-.186-2.087H301.8v3.947h5.492a4.694 4.694 0 0 1-2.036 3.08v2.56h3.3a9.952 9.952 0 0 0 3.043-7.5zm0 0" class="cls-1" transform="translate(-301.801 -145.678)"/>
        </clipPath>
        <clipPath id="clip-path-2">
            <path id="SVGID-2" d="M230.447 187.426a9.742 9.742 0 0 0 6.753-2.472l-3.3-2.56a6.156 6.156 0 0 1-9.165-3.233h-3.409v2.639a10.2 10.2 0 0 0 9.119 5.622zm0 0" class="cls-1" transform="translate(-221.328 -179.161)"/>
        </clipPath>
        <clipPath id="clip-path-3">
            <path id="SVGID-3" d="M216.244 128.131a6.034 6.034 0 0 1 0-3.878v-2.643h-3.409a10.217 10.217 0 0 0 0 9.165l3.409-2.644zm0 0" class="cls-1" transform="translate(-211.75 -121.61)"/>
        </clipPath>
        <clipPath id="clip-path-4">
            <path id="SVGID-4" d="M230.447 76.058a5.512 5.512 0 0 1 3.9 1.526l2.927-2.927A9.807 9.807 0 0 0 230.447 72a10.2 10.2 0 0 0-9.119 5.622l3.409 2.644a6.081 6.081 0 0 1 5.71-4.207zm0 0" class="cls-1" transform="translate(-221.328 -72)"/>
        </clipPath>
        <style>
            .cls-1{fill:none;clip-rule:evenodd}
        </style>
    </defs>
    <g id="그룹_159" transform="translate(-211.75 -72)">
        <g id="그룹_152" transform="translate(221.954 80.349)">
            <g id="그룹_151" clip-path="url(#clip-path)">
                <path id="사각형_102" fill="#3e82f1" d="M0 0H21.134V20.925H0z" transform="translate(-5.669 -5.669)"/>
            </g>
        </g>
        <g id="그룹_154" transform="translate(212.835 84.143)">
            <g id="그룹_153" clip-path="url(#clip-path-2)">
                <path id="사각형_103" fill="#32a753" d="M0 0H27.21V19.603H0z" transform="translate(-5.669 -5.669)"/>
            </g>
        </g>
        <g id="그룹_156" transform="translate(211.75 77.622)">
            <g id="그룹_155" clip-path="url(#clip-path-3)">
                <path id="사각형_104" fill="#f9bb00" d="M0 0H15.832V20.503H0z" transform="translate(-5.669 -5.669)"/>
            </g>
        </g>
        <g id="그룹_158" transform="translate(212.835 72)">
            <g id="그룹_157" clip-path="url(#clip-path-4)">
                <path id="사각형_105" fill="#e74133" d="M0 0H27.284V19.603H0z" transform="translate(-5.669 -5.669)"/>
            </g>
        </g>
    </g>
</svg>
