<svg xmlns="http://www.w3.org/2000/svg" width="345.005" height="56" viewBox="0 0 345.005 56">
    <g fill="none" opacity="0.5">
        <path d="M16.286.429L343 0a2 2 0 0 1 2 2v36.667c.333-.333-16.167 17-16.167 16.833L2 56a2 2 0 0 1-2-2V15.429c.4.4 16.086-15 16.286-15z"/>
        <path fill="#fff" d="M343 1h.001L16.65 1.428c-.59.538-2.177 2.057-3.843 3.651-2.327 2.227-5.222 4.998-7.605 7.217-2.37 2.207-3.546 3.237-4.202 3.718V54c0 .551.449 1 .998 1l326.444-.5c1.884-1.872 13.534-14.076 15.558-16.227V2c0-.551-.448-1-1-1m0-1c1.105 0 2 .895 2 2v36.667l.005-.005c.016 0-16.014 16.84-16.17 16.84l-.002-.002L2 56c-1.105 0-2-.895-2-2V15.429c.005.005.013.007.023.007C.8 15.436 16.088.43 16.286.43L343 0z"/>
    </g>
</svg>
