<svg xmlns="http://www.w3.org/2000/svg" width="19.43" height="18.997" viewBox="0 0 19.43 18.997">
    <path fill="#d0a85c" stroke="#d0a85c" stroke-miterlimit="10" d="M406.848 29.917l.657-1.555c.435-1.088 1.422-.884 2.691-.885h1.827c1.269 0 2.255-.2 2.691.885l.655 1.555 3.388 10h-1.041a1.758 1.758 0 0 1-.2-.02v.003l-8.134.014.416-1.042c.32-.908 1.072-1.69 1.773-1.667l3.617-.014L413 30.776c-.409-.941-1.172-.862-1.879-.86h-.021c-.707 0-1.471-.081-1.88.86L403.792 44.3a2.01 2.01 0 0 1-1.992 1.16h-1.041z" transform="translate(-400.025 -26.968)"/>
</svg>
