<svg xmlns="http://www.w3.org/2000/svg" width="18.854" height="18.854" viewBox="0 0 18.854 18.854">
    <defs>
        <style>
            .cls-1{fill:#d0a85c}
        </style>
    </defs>
    <g id="icon" transform="rotate(180 149.492 21.356) translate(280.379 24.108)">
        <g id="그룹_112">
            <path id="패스_57" d="M284.354 29l.917-.917a3.537 3.537 0 0 1 2.5-1.035h6.2a3.539 3.539 0 0 0 2.5-1.036l1.9-1.9h-11.818a3.537 3.537 0 0 0-2.5 1.035l-2.637 2.637a3.538 3.538 0 0 0-1.037 2.5v11.824l1.9-1.9a3.539 3.539 0 0 0 1.036-2.5V31.5a3.54 3.54 0 0 1 1.039-2.5z" class="cls-1" transform="translate(-280.379 -24.108)"/>
        </g>
        <g id="그룹_113">
            <path id="패스_58" d="M284.354 29l.917-.917a3.537 3.537 0 0 1 2.5-1.035h6.2a3.539 3.539 0 0 0 2.5-1.036l1.9-1.9h-11.818a3.537 3.537 0 0 0-2.5 1.035l-2.637 2.637a3.538 3.538 0 0 0-1.037 2.5v11.824l1.9-1.9a3.539 3.539 0 0 0 1.036-2.5V31.5a3.54 3.54 0 0 1 1.039-2.5z" class="cls-1" transform="translate(-280.379 -24.108)"/>
        </g>
        <g id="그룹_114">
            <path id="패스_59" fill="none" stroke="#d0a85c" stroke-width="0.5px" d="M284.354 29l.917-.917a3.537 3.537 0 0 1 2.5-1.035h6.2a3.539 3.539 0 0 0 2.5-1.036l1.9-1.9h-11.818a3.537 3.537 0 0 0-2.5 1.035l-2.637 2.637a3.538 3.538 0 0 0-1.037 2.5v11.824l1.9-1.9a3.539 3.539 0 0 0 1.036-2.5V31.5a3.54 3.54 0 0 1 1.039-2.5z" transform="translate(-280.379 -24.108)"/>
        </g>
    </g>
</svg>
