<svg xmlns="http://www.w3.org/2000/svg" width="18" height="18" viewBox="0 0 18 18">
    <defs>
        <style>
            .cls-1{fill:#d0a85c}
        </style>
    </defs>
    <g id="icon" transform="translate(-239.361 -21.874)">
        <g id="그룹_117" transform="translate(239.361 29.911)">
            <path id="패스_60" d="M246.126 43.874a18.061 18.061 0 0 0-6.765-9.963 24.862 24.862 0 0 1 2.188 8.4 1.638 1.638 0 0 0 1.593 1.56h2.987" class="cls-1" transform="translate(-239.361 -33.911)"/>
            <path id="패스_61" d="M255.42 43.874a15.859 15.859 0 0 1 5.941-8.748 21.47 21.47 0 0 0-1.964 8.745h-3.979" class="cls-1" transform="translate(-243.361 -33.911)"/>
        </g>
        <g id="그룹_120" transform="translate(241.44 21.874)">
            <path id="패스_62" d="M254.4 39.874a27.641 27.641 0 0 0-10.97-15.343 36.6 36.6 0 0 1 3.608 13.991 1.512 1.512 0 0 0 1.6 1.348h5.766" class="cls-1" transform="translate(-243.435 -21.874)"/>
            <g id="그룹_119" transform="translate(2.856)">
                <g id="그룹_118">
                    <path id="패스_63" d="M246.3 41.217v-.005h-.005z" class="cls-1" transform="translate(-246.291 -25.874)"/>
                    <path id="패스_64" d="M257.266 21.874a34.42 34.42 0 0 0-6.823 8.53 44.282 44.282 0 0 1 3.675 7.509 55.979 55.979 0 0 1 3.148-16.039z" class="cls-1" transform="translate(-246.291 -21.874)"/>
                    <path id="패스_65" d="M255.886 43.323v-.006h-.005z" class="cls-1" transform="translate(-246.291 -25.874)"/>
                </g>
            </g>
        </g>
    </g>
</svg>
