<svg xmlns="http://www.w3.org/2000/svg" width="10.997" height="10.997" viewBox="0 0 10.997 10.997">
    <defs>
        <style>
            .cls-1{fill:#d0a85c}
        </style>
    </defs>
    <g id="icon" transform="translate(-239.361 -21.874)">
        <g id="그룹_117" transform="translate(239.361 27.26)">
            <path id="패스_60" d="M243.171 39.522a10.172 10.172 0 0 0-3.81-5.611 14 14 0 0 1 1.232 4.731.923.923 0 0 0 .9.879h1.682" class="cls-1" transform="translate(-239.361 -33.911)"/>
            <path id="패스_61" d="M255.419 40.053a8.932 8.932 0 0 1 3.346-4.927 12.091 12.091 0 0 0-1.106 4.925h-2.241" class="cls-1" transform="translate(-247.768 -34.442)"/>
        </g>
        <g id="그룹_120" transform="translate(240.532 21.874)">
            <path id="패스_62" d="M249.613 34.031a17.353 17.353 0 0 0-6.178-9.5 24.393 24.393 0 0 1 2.032 8.663.882.882 0 0 0 .9.834h3.247" class="cls-1" transform="translate(-243.435 -23.035)"/>
            <g id="그룹_119" transform="translate(2.468)">
                <g id="그룹_118">
                    <path id="패스_64" d="M254.286 21.874a21.033 21.033 0 0 0-3.843 5.261 28.486 28.486 0 0 1 2.07 4.631 37.356 37.356 0 0 1 1.773-9.892z" class="cls-1" transform="translate(-248.105 -21.874)"/>
                </g>
            </g>
        </g>
    </g>
</svg>
