<svg xmlns="http://www.w3.org/2000/svg" width="10.854" height="10.854" viewBox="0 0 10.854 10.854">
    <g>
        <g>
            <path fill="#fff" d="M282.587 26.825l.509-.509a1.965 1.965 0 0 1 1.39-.575h3.446a1.966 1.966 0 0 0 1.39-.576l1.057-1.057h-6.57a1.965 1.965 0 0 0-1.389.575l-1.465 1.465a1.966 1.966 0 0 0-.576 1.389v6.571l1.058-1.058a1.966 1.966 0 0 0 .576-1.39v-3.445a1.967 1.967 0 0 1 .574-1.39z" transform="translate(-280.129 -23.858) translate(280.379 24.108) translate(-280.379 -24.108)"/>
        </g>
        <g>
            <path fill="#d0a85c" d="M282.587 26.825l.509-.509a1.965 1.965 0 0 1 1.39-.575h3.446a1.966 1.966 0 0 0 1.39-.576l1.057-1.057h-6.57a1.965 1.965 0 0 0-1.389.575l-1.465 1.465a1.966 1.966 0 0 0-.576 1.389v6.571l1.058-1.058a1.966 1.966 0 0 0 .576-1.39v-3.445a1.967 1.967 0 0 1 .574-1.39z" transform="translate(-280.129 -23.858) translate(280.379 24.108) translate(-280.379 -24.108)"/>
        </g>
        <g>
            <path fill="none" stroke="#d0a85c" stroke-width="0.5px" d="M282.587 26.825l.509-.509a1.965 1.965 0 0 1 1.39-.575h3.446a1.966 1.966 0 0 0 1.39-.576l1.057-1.057h-6.57a1.965 1.965 0 0 0-1.389.575l-1.465 1.465a1.966 1.966 0 0 0-.576 1.389v6.571l1.058-1.058a1.966 1.966 0 0 0 .576-1.39v-3.445a1.967 1.967 0 0 1 .574-1.39z" transform="translate(-280.129 -23.858) translate(280.379 24.108) translate(-280.379 -24.108)"/>
        </g>
    </g>
</svg>
