<svg xmlns="http://www.w3.org/2000/svg" id="team_icon" width="30" height="30" viewBox="0 0 30 30">
    <defs>
        <style>
            .cls-4{fill:#9a9a95}.cls-9{fill:#08227d}
        </style>
    </defs>
    <g id="team_icon-2">
        <path id="사각형_15" fill="none" d="M0 0H30V30H0z"/>
        <path id="패스_24" fill="#f5f5f5" d="M113.939 35.481l-13.219-6.828-13.229 6.828a22.66 22.66 0 0 0 .3 5.787l12.924-6.673 12.923 6.673a22.593 22.593 0 0 0 .301-5.787z" transform="translate(-85.715 -28.212)"/>
        <path id="패스_25" fill="#3b96d7" d="M100.571 34.076h-.007L87.879 40.7a20.75 20.75 0 0 0 1.512 4.6l11.174-5.832 11.174 5.832a20.75 20.75 0 0 0 1.512-4.6z" transform="translate(-85.566 -26.428)"/>
        <path id="패스_26" d="M95.614 42.651h-3.78l-2.38 1.241s2.737 6.041 8.02 8.833z" class="cls-4" transform="translate(-85.048 -23.607)"/>
        <path id="패스_27" d="M101.224 42.651H105l2.381 1.241s-2.739 6.041-8.021 8.833z" class="cls-4" transform="translate(-81.79 -23.607)"/>
        <path id="패스_28" fill="#1f5db8" d="M105.761 42.868l-6.681-3.706-6.68 3.706h4.137l2.543 11.557 2.544-11.557z" transform="translate(-84.08 -24.755)"/>
        <path id="패스_29" fill="#2889d2" d="M98.369 40.072l-8.978 4.685a20.75 20.75 0 0 1-1.512-4.6l8.558-4.468a8.364 8.364 0 0 0 1.932 4.383z" transform="translate(-85.566 -25.895)"/>
        <path id="패스_30" fill="#e8e8e8" d="M90.886 38.261l-3.095 1.564a22.66 22.66 0 0 1-.3-5.787l1.937-1a13.179 13.179 0 0 0 1.458 5.223z" transform="translate(-85.715 -26.769)"/>
        <path id="패스_31" fill="#0a3ead" d="M94.117 41.614l-4.726 2.466a20.75 20.75 0 0 1-1.512-4.6l3.314-1.73a18.428 18.428 0 0 0 2.924 3.864z" transform="translate(-85.566 -25.217)"/>
        <path id="패스_32" d="M93.72 41.4l-1.322.733h2.581" class="cls-9" transform="translate(-84.08 -24.019)"/>
        <path id="패스_35" d="M100.061 43.953l-2.054 9.328-2.342-10.641a16.274 16.274 0 0 0 4.396 1.313z" class="cls-9" transform="translate(-83.006 -23.611)"/>
        <path id="패스_36" fill="#c7c7c5" d="M106.561 44.743c.288-.529.435-.85.435-.85l-2.381-1.241h-3.779l-.287 1.553a21.121 21.121 0 0 0 6.012.538z" transform="translate(-81.4 -23.607)"/>
        <path id="패스_37" fill="#3071bf" d="M101.9 42.868h2.541l-6.681-3.706-1.353.751a15.014 15.014 0 0 0 5.493 2.955z" transform="translate(-82.761 -24.755)"/>
    </g>
</svg>
