<svg xmlns="http://www.w3.org/2000/svg" id="team_icon" width="30" height="30" viewBox="0 0 30 30">
    <defs>
        <style>
            .cls-1{fill:#00a982}
        </style>
    </defs>
    <path id="패스_38" d="M143.482 46.126l-6.32-5.768 3.391-6.326-2.07.4 1.806-5.024-10.372 6.725-1.434-1.73-1.434 1.73-10.372-6.725 1.806 5.024-2.07-.4 3.391 6.326-6.32 5.768h3.964l-1.674 2.126 6.584 3.19 2.995 6.512.837-1.01-1.916-7.5-4.6-2.366 2.4-3.322h-1.762l2-2.259-1.85-7.23 6.716 5.449 1.3-1.468 1.3 1.468 6.716-5.449-1.85 7.23 2 2.259h-1.762l2.4 3.322-4.6 2.366-1.916 7.5.837 1.01 2.995-6.512 6.584-3.19-1.674-2.126z" class="cls-1" transform="translate(-113.482 -29.407)"/>
    <g id="그룹_10" transform="translate(9.7 13.533)">
        <path id="패스_39" d="M125.021 42.035a11.647 11.647 0 0 1-4.426-3.787l1.057 3.769 3.386 1.244z" class="cls-1" transform="translate(-120.595 -38.248)"/>
        <path id="패스_40" d="M125.126 42.035a11.647 11.647 0 0 0 4.426-3.787l-1.052 3.769-3.386 1.244z" class="cls-1" transform="translate(-118.953 -38.248)"/>
    </g>
    <path id="패스_41" d="M125.9 48.837l-1.119 1.222-1.119-1.222 1.119-1.222z" class="cls-1" transform="translate(-109.78 -20.058)"/>
</svg>
